<svg xmlns="http://www.w3.org/2000/svg" viewBox="0 0 920 560" font-family="Nunito, system-ui, sans-serif">
  <!-- Planche de référence palette — voir art-direction.md (la source de vérité : src/index.css) -->
  <rect width="920" height="560" fill="#fdf6ec"/>
  <text x="40" y="52" font-size="28" font-weight="800" fill="#1e3a4c">L'Archipel — palette maîtresse</text>

  <!-- Rangée maîtresse -->
  <g transform="translate(40,80)">
    <rect width="100" height="72" rx="16" fill="#fdf6ec" stroke="#4a6b80" stroke-width="1"/>
    <rect x="110" width="100" height="72" rx="16" fill="#f7e8d0"/>
    <rect x="220" width="100" height="72" rx="16" fill="#1e3a4c"/>
    <rect x="330" width="100" height="72" rx="16" fill="#4a6b80"/>
    <rect x="440" width="100" height="72" rx="16" fill="#5fd3c8"/>
    <rect x="550" width="100" height="72" rx="16" fill="#14a098"/>
    <rect x="660" width="100" height="72" rx="16" fill="#0e7490"/>
    <text y="92" font-size="13" fill="#4a6b80">#fdf6ec papier</text>
    <text x="110" y="92" font-size="13" fill="#4a6b80">#f7e8d0 sable</text>
    <text x="220" y="92" font-size="13" fill="#4a6b80">#1e3a4c encre</text>
    <text x="330" y="92" font-size="13" fill="#4a6b80">#4a6b80 encre douce</text>
    <text x="440" y="92" font-size="13" fill="#4a6b80">#5fd3c8 lagon 300</text>
    <text x="550" y="92" font-size="13" fill="#4a6b80">#14a098 lagon 500</text>
    <text x="660" y="92" font-size="13" fill="#4a6b80">#0e7490 lagon 700</text>
  </g>
  <g transform="translate(40,196)">
    <rect width="100" height="72" rx="16" fill="#ff7866"/>
    <rect x="110" width="100" height="72" rx="16" fill="#e85d4a"/>
    <rect x="220" width="100" height="72" rx="16" fill="#ffc94d"/>
    <rect x="330" width="100" height="72" rx="16" fill="#f0a818"/>
    <rect x="440" width="100" height="72" rx="16" fill="#58c472"/>
    <rect x="550" width="100" height="72" rx="16" fill="#9b7ede"/>
    <rect x="660" width="100" height="72" rx="16" fill="#5ab8f5"/>
    <text y="92" font-size="13" fill="#4a6b80">#ff7866 corail</text>
    <text x="110" y="92" font-size="13" fill="#4a6b80">#e85d4a corail prof.</text>
    <text x="220" y="92" font-size="13" fill="#4a6b80">#ffc94d soleil</text>
    <text x="330" y="92" font-size="13" fill="#4a6b80">#f0a818 soleil prof.</text>
    <text x="440" y="92" font-size="13" fill="#4a6b80">#58c472 feuille</text>
    <text x="550" y="92" font-size="13" fill="#4a6b80">#9b7ede raisin</text>
    <text x="660" y="92" font-size="13" fill="#4a6b80">#5ab8f5 ciel</text>
  </g>

  <text x="40" y="348" font-size="22" font-weight="800" fill="#1e3a4c">Dominante + soutien par île</text>
  <g transform="translate(40,372)" font-size="13" fill="#4a6b80">
    <rect width="72" height="56" rx="14" fill="#ff7866"/><rect x="76" width="36" height="56" rx="12" fill="#f7e8d0"/>
    <text y="76">Sons</text>
    <g transform="translate(170,0)">
      <rect width="72" height="56" rx="14" fill="#5ab8f5"/><rect x="76" width="36" height="56" rx="12" fill="#5fd3c8"/>
      <text y="76">Nombres</text>
    </g>
    <g transform="translate(340,0)">
      <rect width="72" height="56" rx="14" fill="#58c472"/><rect x="76" width="36" height="56" rx="12" fill="#4a6b80"/>
      <text y="76">Robots</text>
    </g>
    <g transform="translate(510,0)">
      <rect width="72" height="56" rx="14" fill="#ffc94d"/><rect x="76" width="36" height="56" rx="12" fill="#3a9e54"/>
      <text y="76">Monde</text>
    </g>
    <g transform="translate(680,0)">
      <rect width="72" height="56" rx="14" fill="#9b7ede"/><rect x="76" width="36" height="56" rx="12" fill="#ff7866"/>
      <text y="76">Ailleurs</text>
    </g>
  </g>

  <text x="40" y="512" font-size="14" fill="#4a6b80">Lumière unique haut-gauche · ombres encre 15 % · jamais de noir pur · zéro texte incrusté dans les assets</text>
</svg>
